<svg xmlns="http://www.w3.org/2000/svg" xmlns:xlink="http://www.w3.org/1999/xlink" width="1920.478" height="1923.101" viewBox="0 0 1920.478 1923.101">
  <defs>
    <linearGradient id="linear-gradient" x1="0.5" x2="0.5" y2="1" gradientUnits="objectBoundingBox">
      <stop offset="0" stop-color="#2ea883" stop-opacity="0.42"/>
      <stop offset="0" stop-color="#173f5f"/>
      <stop offset="0" stop-color="#fff"/>
      <stop offset="0" stop-color="#173f5f"/>
      <stop offset="1" stop-color="#c8dfdf"/>
      <stop offset="1" stop-color="#8b8b8b"/>
      <stop offset="1" stop-color="#fff" stop-opacity="0.541"/>
      <stop offset="1" stop-color="#535253" stop-opacity="0.98"/>
    </linearGradient>
    <linearGradient id="linear-gradient-2" x1="0.5" x2="0.636" y2="0.986" gradientUnits="objectBoundingBox">
      <stop offset="0" stop-color="#ea283a"/>
      <stop offset="1" stop-color="#ec6521"/>
    </linearGradient>
    <linearGradient id="linear-gradient-3" x1="0.5" x2="0.869" y2="0.8" gradientUnits="objectBoundingBox">
      <stop offset="0" stop-color="#e91741"/>
      <stop offset="1" stop-color="#ec6c1d"/>
    </linearGradient>
    <linearGradient id="linear-gradient-4" x1="0.5" x2="0.5" y2="1" gradientUnits="objectBoundingBox">
      <stop offset="0" stop-color="#ea233c"/>
      <stop offset="1" stop-color="#ec671f"/>
    </linearGradient>
    <linearGradient id="linear-gradient-5" x1="0.5" x2="0.5" y2="1" gradientUnits="objectBoundingBox">
      <stop offset="0" stop-color="#ea253c"/>
      <stop offset="1" stop-color="#ed731c"/>
    </linearGradient>
  </defs>
  <g id="design" transform="translate(0.478 0.616)">
    <g id="Path_1" data-name="Path 1" transform="translate(0 123)" fill="url(#linear-gradient)">
      <path d="M 1919.5 1756.639526367188 L 1777.47998046875 1756.639526367188 L 0.49993896484375 1756.639526367188 L 0.49993896484375 0.5000012516975403 L 1919.5 0.5000012516975403 L 1919.5 1756.639526367188 Z" stroke="none"/>
      <path d="M 0.9998779296875 1 L 0.9998779296875 1756.139526367188 L 1777.47998046875 1756.139526367188 L 1919 1756.139526367188 L 1919 1 L 0.9998779296875 1 M -0.0001220703125 0 L 1920 0 L 1920 1757.139526367188 L 1777.47998046875 1757.139526367188 L -0.0001220703125 1757.139526367188 L -0.0001220703125 0 Z" stroke="none" fill="#fff"/>
    </g>
    <g id="Rectangle_1" data-name="Rectangle 1" fill="#424141" stroke="#173f5f" stroke-width="1">
      <rect width="1920" height="1880" stroke="none"/>
      <rect x="0.5" y="0.5" width="1919" height="1879" fill="none"/>
    </g>
    <g id="Polygon_1" data-name="Polygon 1" transform="matrix(0.951, 0.309, -0.309, 0.951, 1614.37, 355.684)" fill="url(#linear-gradient-2)">
      <path d="M 109.1327743530273 94.5 L 0.8672225475311279 94.5 L 55 0.9979298710823059 L 109.1327743530273 94.5 Z" stroke="none"/>
      <path d="M 55 1.995872497558594 L 1.734451293945313 94 L 108.2655487060547 94 L 55 1.995872497558594 M 55 0 L 110 95 L 0 95 L 55 0 Z" stroke="none" fill="#707070"/>
    </g>
    <g id="Ellipse_1" data-name="Ellipse 1" transform="translate(1470 512)" stroke="#707070" stroke-width="1" fill="url(#linear-gradient-3)">
      <ellipse cx="42" cy="39" rx="42" ry="39" stroke="none"/>
      <ellipse cx="42" cy="39" rx="41.5" ry="38.5" fill="none"/>
    </g>
    <g id="Rectangle_18" data-name="Rectangle 18" transform="translate(1387.879 210.253) rotate(-23)" stroke="#707070" stroke-width="1" fill="url(#linear-gradient-4)">
      <rect width="114" height="75" stroke="none"/>
      <rect x="0.5" y="0.5" width="113" height="74" fill="none"/>
    </g>
    <path id="Path_5" data-name="Path 5" d="M244.022,1514.371s287.909-76.495,475.883,341.978,666.236-310.48,561.542,431.972,328.359,1043.932-168.938,1102.429-868.486,36-868.486,36V1514.371Z" transform="translate(-244 -1509)" stroke="#707070" stroke-width="1" fill="url(#linear-gradient-5)"/>
  </g>
</svg>
